<svg width="21" height="20" viewBox="0 0 21 20" fill="none" xmlns="http://www.w3.org/2000/svg">
<g clip-path="url(#clip0_6_165)">
<path fill-rule="evenodd" clip-rule="evenodd" d="M17.6749 1.75H3.92493C3.23457 1.75 2.67493 2.42157 2.67493 3.25V16.75C2.67493 17.5784 3.23457 18.25 3.92493 18.25H17.6749C18.3653 18.25 18.9249 17.5784 18.9249 16.75V3.25C18.9249 2.42157 18.3653 1.75 17.6749 1.75ZM17.6749 16.75H3.92493V3.25H17.6749V16.75ZM14.5499 6.25C14.5499 8.73528 12.871 10.75 10.7999 10.75C8.72886 10.75 7.04993 8.73528 7.04993 6.25C7.04993 5.83579 7.32975 5.5 7.67493 5.5C8.0201 5.5 8.29993 5.83579 8.29993 6.25C8.29993 7.90685 9.41922 9.25 10.7999 9.25C12.1806 9.25 13.2999 7.90685 13.2999 6.25C13.2999 5.83579 13.5797 5.5 13.9249 5.5C14.2701 5.5 14.5499 5.83579 14.5499 6.25Z" fill="#0D141C"/>
</g>
<defs>
<clipPath id="clip0_6_165">
<rect width="20" height="20" fill="white" transform="translate(0.799927)"/>
</clipPath>
</defs>
</svg>
