<svg width="25" height="24" viewBox="0 0 25 24" fill="none" xmlns="http://www.w3.org/2000/svg">
<g clip-path="url(#clip0_6_153)">
<path fill-rule="evenodd" clip-rule="evenodd" d="M22.0306 20.4694L17.3365 15.7762C20.1629 12.383 19.8204 7.36693 16.5591 4.38935C13.2978 1.41176 8.27128 1.526 5.14861 4.64867C2.02594 7.77134 1.9117 12.7978 4.88929 16.0591C7.86687 19.3204 12.883 19.6629 16.2762 16.8366L20.9693 21.5306C21.2624 21.8237 21.7375 21.8237 22.0306 21.5306C22.3236 21.2376 22.3236 20.7624 22.0306 20.4694ZM4.24994 10.5C4.24994 6.77208 7.27202 3.75 10.9999 3.75C14.7279 3.75 17.7499 6.77208 17.7499 10.5C17.7499 14.2279 14.7279 17.25 10.9999 17.25C7.27373 17.2459 4.25407 14.2262 4.24994 10.5Z" fill="#4A739C"/>
</g>
<defs>
<clipPath id="clip0_6_153">
<rect width="24" height="24" fill="white" transform="translate(0.499939)"/>
</clipPath>
</defs>
</svg>
