<svg width="21" height="20" viewBox="0 0 21 20" fill="none" xmlns="http://www.w3.org/2000/svg">
<g clip-path="url(#clip0_6_160)">
<path fill-rule="evenodd" clip-rule="evenodd" d="M14.7062 2.5C13.0929 2.5 11.6804 3.19375 10.7999 4.36641C9.91946 3.19375 8.50696 2.5 6.89368 2.5C4.2198 2.50301 2.05294 4.66987 2.04993 7.34375C2.04993 12.8125 10.1585 17.2391 10.5038 17.4219C10.6887 17.5213 10.9112 17.5213 11.096 17.4219C11.4413 17.2391 19.5499 12.8125 19.5499 7.34375C19.5469 4.66987 17.3801 2.50301 14.7062 2.5ZM10.7999 16.1562C9.37336 15.325 3.29993 11.5383 3.29993 7.34375C3.30251 5.36005 4.90997 3.75258 6.89368 3.75C8.41321 3.75 9.68899 4.55937 10.2218 5.85938C10.3181 6.09382 10.5465 6.2469 10.7999 6.2469C11.0534 6.2469 11.2817 6.09382 11.3781 5.85938C11.9109 4.55703 13.1866 3.75 14.7062 3.75C16.6899 3.75258 18.2973 5.36005 18.2999 7.34375C18.2999 11.532 12.2249 15.3242 10.7999 16.1562Z" fill="#0D141C"/>
</g>
<defs>
<clipPath id="clip0_6_160">
<rect width="20" height="20" fill="white" transform="translate(0.799927)"/>
</clipPath>
</defs>
</svg>
